# xmcd CD database file
#
# Track frame offsets:
#	150
#	11895
#	26479
#	36529
#	52329
#	66958
#	82592
#	93622
#	109035
#	123999
#	139212
#	163944
#	181296
#	192586
#
# Disc length: 2781 seconds
#
# Revision: 3
# Processed by: cddbd v1.4PL0 Copyright (c) Steve Scherf et al.
# Submitted via: CDex 1.40Beta8
#
DISCID=cb0adb0e
DTITLE=Breno Reis and Marco Viola - Breno Reis and Marco Viola
DYEAR=1999
DGENRE=Country
TTITLE0=Piracicabano
TTITLE1=O amor tem dessas coisas
TTITLE2=No batido do pagode
TTITLE3=Um amor e uma paixão
TTITLE4=Inquilino de violeiro
TTITLE5=Chamada a cobrar
TTITLE6=Chão de Goiás
TTITLE7=Cobra venenoza
TTITLE8=Águas do São Francisco
TTITLE9=Faca que não corta
TTITLE10=Pode voltar paixão
TTITLE11=Zé do boi
TTITLE12=Queima do alho
TTITLE13=Caçador
EXTD=YEAR: 1999 ID3G: 2
EXTT0=
EXTT1=
EXTT2=
EXTT3=
EXTT4=
EXTT5=
EXTT6=
EXTT7=
EXTT8=
EXTT9=
EXTT10=
EXTT11=
EXTT12=
EXTT13=
PLAYORDER=
